<svg xmlns="http://www.w3.org/2000/svg" viewBox="0 0 1023.76 152.87"><defs><style>.cls-1{fill:#fcf2f2;}</style></defs><title>bwlogotype</title><g id="Layer_2" data-name="Layer 2"><g id="Layer_1-2" data-name="Layer 1"><path d="M267.39,92.72a17.66,17.66,0,0,1-6.16,3.22,28.9,28.9,0,0,1-8.74,1.2,30.75,30.75,0,0,1-10.94-1.66,8.79,8.79,0,0,1-5.62-5.7q-5.15-16.19-8.46-26.21T222.32,46h-.92q-.54,10.86-.82,19.78t-.37,17.38q-.09,8.46-.37,17.11T219,119.39a32.44,32.44,0,0,1-6.25,1.57,46.88,46.88,0,0,1-7.73.64q-8.09,0-12.6-2.57t-4.5-9.38l5.33-93.81q1.47-2.4,6.44-5.15t14-2.77q9.75,0,15.26,3A18,18,0,0,1,237,20.8q1.65,4.41,3.59,10.12t3.86,11.77q1.94,6.08,3.77,12.05t3.31,10.76h.92q4.41-15.45,8.83-29.89t8.09-24.19a29.31,29.31,0,0,1,7.09-2.48,42.53,42.53,0,0,1,9.65-1c6,0,10.91.9,14.72,2.67s6,4.33,6.62,7.64q.74,3.68,1.56,11.31t1.75,17.2q.92,9.57,1.84,20.23t1.75,20.51q.83,9.84,1.38,18t.73,12.6a24.1,24.1,0,0,1-6.53,2.67,38.11,38.11,0,0,1-8.73.82,26.22,26.22,0,0,1-11.78-2.39q-4.79-2.38-5.15-9.38-1.1-20.06-1.38-36t-.82-26.86h-.93q-1.83,7.17-5.33,18T267.39,92.72Z"/><path d="M371.32,28a75.52,75.52,0,0,1,18.12,2,40.51,40.51,0,0,1,14,6.16,27.84,27.84,0,0,1,8.93,10.49,33.63,33.63,0,0,1,3.12,15v41.2a11.44,11.44,0,0,1-2.66,7.82,26.71,26.71,0,0,1-6.35,5.24q-12,7.17-33.66,7.17a77.29,77.29,0,0,1-17.57-1.83,41.88,41.88,0,0,1-13.43-5.52,25.35,25.35,0,0,1-8.64-9.38,27.86,27.86,0,0,1-3-13.25q0-12.69,7.54-19.5T361,65.13l24.09-2.57V61.27a7.87,7.87,0,0,0-4.69-7.63q-4.69-2.31-13.52-2.3a62.64,62.64,0,0,0-13.61,1.47,71.73,71.73,0,0,0-12,3.68,12.78,12.78,0,0,1-4-5.06,15.92,15.92,0,0,1-1.66-7.08,11.84,11.84,0,0,1,2.3-7.64A17.77,17.77,0,0,1,345,31.84a55.65,55.65,0,0,1,12.6-2.95A110,110,0,0,1,371.32,28Zm1.47,72.29a41.35,41.35,0,0,0,6.9-.65,17,17,0,0,0,5.61-1.74V83.16l-13.25,1.1a20.39,20.39,0,0,0-8.46,2.21A6,6,0,0,0,360.28,92a7.34,7.34,0,0,0,2.85,6Q366,100.27,372.79,100.27Z"/><path d="M475.61,28a70.91,70.91,0,0,1,20.51,2.85,43.73,43.73,0,0,1,16.28,8.74,40.58,40.58,0,0,1,10.67,14.8q3.85,8.93,3.86,21.25a58.49,58.49,0,0,1-3.31,20.6A40.38,40.38,0,0,1,514.24,111,38.28,38.28,0,0,1,499.61,120a58.24,58.24,0,0,1-19,2.94,44.21,44.21,0,0,1-14.72-2.39V151a49.86,49.86,0,0,1-5.88,1.2,52.57,52.57,0,0,1-8.28.64,43.12,43.12,0,0,1-7.27-.55,12.33,12.33,0,0,1-5.42-2.21,9.84,9.84,0,0,1-3.31-4.5,20.9,20.9,0,0,1-1.11-7.45V49.86a14.18,14.18,0,0,1,2.12-8.09,22.3,22.3,0,0,1,5.79-5.7,48.75,48.75,0,0,1,14.16-5.89A75.22,75.22,0,0,1,475.61,28ZM476,98.24q18.94,0,18.95-22.62,0-11.78-4.7-17.48t-13.51-5.7a21.82,21.82,0,0,0-6.26.83,24.62,24.62,0,0,0-4.78,1.93V95.67a27.91,27.91,0,0,0,4.78,1.84A20.07,20.07,0,0,0,476,98.24Z"/><path d="M645.57,116.27a16.8,16.8,0,0,1-7.45,4,43.25,43.25,0,0,1-11.68,1.38,40.34,40.34,0,0,1-12.87-2q-6.08-2-9.94-9.75L585.42,72.67q-2.76-5.7-5-10.76t-4.79-11.68l-1.1.19q.73,9.93.83,20.23t.09,20.23v28.51a50.83,50.83,0,0,1-6.16,1.11,61.57,61.57,0,0,1-8.19.55,41.32,41.32,0,0,1-7.17-.55,11,11,0,0,1-5.15-2.21,10.59,10.59,0,0,1-3.13-4.51,21,21,0,0,1-1.1-7.44v-92a15.32,15.32,0,0,1,7.91-5.51A34.62,34.62,0,0,1,563.9,7a39.67,39.67,0,0,1,13,2.11q6.17,2.12,9.84,9.66L605.1,55.94q2.77,5.7,5,10.75t4.78,11.69l.92-.19q-.74-9.93-.92-19.86t-.18-19.87V8.66a49.3,49.3,0,0,1,6.16-1.1A61.57,61.57,0,0,1,629,7q8.09,0,12.32,2.85t4.23,11.86Z"/><path d="M759.61,75.43a55.4,55.4,0,0,1-3.49,20.33,41.21,41.21,0,0,1-9.84,15A41.87,41.87,0,0,1,731.1,120a58.71,58.71,0,0,1-19.68,3.12,55.58,55.58,0,0,1-19.68-3.31,43.15,43.15,0,0,1-15.18-9.47,42.25,42.25,0,0,1-9.84-15,53.62,53.62,0,0,1-3.49-19.87,53.08,53.08,0,0,1,3.49-19.68,42.25,42.25,0,0,1,9.84-15,43.15,43.15,0,0,1,15.18-9.47A55.58,55.58,0,0,1,711.42,28a54.26,54.26,0,0,1,19.68,3.4,44.53,44.53,0,0,1,15.18,9.56,42.29,42.29,0,0,1,9.84,15A52.48,52.48,0,0,1,759.61,75.43Zm-64.38,0q0,11.22,4.33,17.2a14,14,0,0,0,12.05,6,13.48,13.48,0,0,0,11.86-6.07q4.14-6.08,4.14-17.11t-4.23-17a14.94,14.94,0,0,0-23.91,0Q695.22,64.39,695.23,75.43Z"/><path d="M806.15,89.41q0,4.78,3,6.81t8.55,2a36.46,36.46,0,0,0,5.7-.46,31.46,31.46,0,0,0,5.15-1.19,22.47,22.47,0,0,1,2.85,4.5,13.66,13.66,0,0,1,1.2,6,14.25,14.25,0,0,1-5.24,11.41q-5.25,4.41-18.49,4.41-16.18,0-24.92-7.36t-8.74-23.91V12.89c1.35-.37,3.28-.76,5.79-1.19a47.47,47.47,0,0,1,8-.65q8.1,0,12.61,2.85t4.5,12V37.72h24.1a32.23,32.23,0,0,1,2.11,5.06,21.34,21.34,0,0,1,1,6.72q0,6.44-2.86,9.29a10.31,10.31,0,0,1-7.63,2.85H806.15Z"/><path d="M894.63,123.07a64.67,64.67,0,0,1-20.15-3,45.56,45.56,0,0,1-16.18-9.11,42,42,0,0,1-10.85-15.26,54.09,54.09,0,0,1-4-21.52q0-12.15,4-20.88a41,41,0,0,1,10.39-14.35,41.61,41.61,0,0,1,14.71-8.28A55.11,55.11,0,0,1,889.48,28a51.2,51.2,0,0,1,17.75,2.94A42.71,42.71,0,0,1,921,39a36,36,0,0,1,9,12.33A37.82,37.82,0,0,1,933.26,67q0,6.25-3.5,9.57T920,80.77l-45.43,6.8a15.24,15.24,0,0,0,8.28,9.11,32.47,32.47,0,0,0,14.34,3,51.28,51.28,0,0,0,14.26-1.93,45.75,45.75,0,0,0,10.94-4.5,15.42,15.42,0,0,1,5,5.14,13.23,13.23,0,0,1,2,7q0,8.27-7.72,12.32A40.73,40.73,0,0,1,908.42,122,92.57,92.57,0,0,1,894.63,123.07Zm-5.15-72.28a18.27,18.27,0,0,0-7.64,1.47A15.32,15.32,0,0,0,876.6,56a15.53,15.53,0,0,0-3,5.15,20.9,20.9,0,0,0-1.2,5.79l31.45-5.15a13.87,13.87,0,0,0-4-7.36Q896.29,50.79,889.48,50.79Z"/><path d="M1023.76,93.46q0,14-10.49,21.89t-30.9,7.91A86.91,86.91,0,0,1,968,122.15a40.92,40.92,0,0,1-11.31-3.4,20.21,20.21,0,0,1-7.36-5.79,13.25,13.25,0,0,1-2.67-8.28,14.09,14.09,0,0,1,1.84-7.45,18.72,18.72,0,0,1,4.42-5.06,72.15,72.15,0,0,0,12.23,5.24,50.09,50.09,0,0,0,15.91,2.3q5.7,0,8.74-1.65t3-4.42a4.6,4.6,0,0,0-2.21-4q-2.21-1.47-7.35-2.4l-5.52-1.1Q961.77,83,954,76.26T946.13,57a25.34,25.34,0,0,1,11.22-21.52,41.66,41.66,0,0,1,12.78-5.7,62.75,62.75,0,0,1,16.47-2,77.09,77.09,0,0,1,12.78,1,42,42,0,0,1,10.4,3,18.75,18.75,0,0,1,7,5.24,11.84,11.84,0,0,1,2.58,7.63,15.7,15.7,0,0,1-1.56,7.27,16.57,16.57,0,0,1-4,5.06,22.45,22.45,0,0,0-4.41-1.93c-2-.67-4.11-1.29-6.44-1.84s-4.69-1-7.08-1.38a43,43,0,0,0-6.53-.55A25.18,25.18,0,0,0,980,52.72q-3.32,1.38-3.31,4.32a3.9,3.9,0,0,0,1.83,3.31q1.85,1.29,7,2.39L991.2,64q17.65,4.05,25.1,11.13T1023.76,93.46Z"/><path class="cls-1" d="M73.48,31l-.09,0a31.53,31.53,0,0,0-.74,3.6A25.82,25.82,0,0,0,72.43,39a24.94,24.94,0,0,0-4.46.23A33.65,33.65,0,0,0,49.19,49,33.62,33.62,0,0,0,39.4,67.76a24.94,24.94,0,0,0-.23,4.46,24.86,24.86,0,0,0-4.45.22,26.87,26.87,0,0,0-3.88.83s0,.07,0,.11a32.31,32.31,0,0,0,6.94,10.28c6.12,6.12,16,8.64,25.47,9.39,13.82,1.11,27-1.46,27.65-2.08s3.21-13.87,2.11-27.7c-.76-9.52-3.29-19.33-9.4-25.44A31.89,31.89,0,0,0,73.48,31ZM90.92,63.59c.62,12.84-1.68,24.49-2.27,25.08s-12.22,2.88-25,2.25c-.87,0-1.74-.09-2.61-.16A34,34,0,0,1,90.76,61C90.83,61.85,90.88,62.73,90.92,63.59Z"/><path d="M73.39,30.91a31.53,31.53,0,0,0-.74,3.6A25.82,25.82,0,0,0,72.43,39a24.94,24.94,0,0,0-4.46.23A33.65,33.65,0,0,0,49.19,49,33.62,33.62,0,0,0,39.4,67.76a24.94,24.94,0,0,0-.23,4.46,24.86,24.86,0,0,0-4.45.22,26.87,26.87,0,0,0-3.88.83c-.3-.72-.59-1.45-.83-2.2s-.48-1.55-.68-2.35c0,0,0,0,0,0a29.42,29.42,0,0,1,5.33-1c.62-7.37,4.44-15.48,11.1-22.15S60.53,35.06,67.9,34.44a29.44,29.44,0,0,1,.89-5,.19.19,0,0,0,0-.07h0l.13,0c.74.19,1.49.41,2.22.66S72.67,30.61,73.39,30.91Z"/><path d="M91,9.48l-.13-.08A49.94,49.94,0,0,0,86.1,6.63l0,0c-1.28-.68-2.59-1.28-3.91-1.85S79.39,3.63,78,3.14s-2.85-.91-4.28-1.27A58.94,58.94,0,0,0,1.83,73.47c.35,1.47.75,2.86,1.22,4.28s1,2.83,1.6,4.2,1.25,2.8,2,4.18l0,.07A51.21,51.21,0,0,0,9.46,91l.08.13a56.88,56.88,0,0,0,7.73,9.54c11.14,11.15,29,15.73,46.35,17.11,25.12,2,49.18-2.68,50.3-3.8s5.82-25.22,3.83-50.38c-1.39-17.32-6-35.17-17.12-46.29A59.59,59.59,0,0,0,91,9.48ZM37.81,37.83a32.39,32.39,0,0,1,31-8.48h0l.13,0c.74.19,1.49.41,2.22.66s1.48.55,2.2.85l.09,0a31.89,31.89,0,0,1,10.17,6.88c6.11,6.11,8.64,15.92,9.4,25.44,1.1,13.83-1.48,27.07-2.11,27.7s-13.83,3.19-27.65,2.08c-9.52-.75-19.35-3.27-25.47-9.39a32.31,32.31,0,0,1-6.94-10.28s0-.08,0-.11c-.3-.72-.59-1.45-.83-2.2s-.48-1.55-.68-2.35c0,0,0,0,0,0-.11-.45-.22-.9-.3-1.35A32.28,32.28,0,0,1,37.81,37.83Z"/><path class="cls-1" d="M68.81,29.35a29.16,29.16,0,0,0-.91,5.09c-7.37.62-15.48,4.44-22.15,11.1S35.27,60.32,34.65,67.69a29.42,29.42,0,0,0-5.33,1A32.4,32.4,0,0,1,68.81,29.35Z"/><path d="M90.76,61c.07.87.12,1.75.16,2.61.62,12.84-1.68,24.49-2.27,25.08s-12.22,2.88-25,2.25c-.87,0-1.74-.09-2.61-.16A34,34,0,0,1,90.76,61Z"/></g></g></svg>