<svg xmlns="http://www.w3.org/2000/svg" viewBox="0 0 18 20.87"><defs><style>.cls-1{fill:#fcf2f2;}.cls-2{fill:#333;}</style></defs><title>notification18</title><g id="Layer_2" data-name="Layer 2"><g id="Layer_1-2" data-name="Layer 1"><path class="cls-1" d="M13.59,7.55v0a5.46,5.46,0,0,0-.47.31,3.21,3.21,0,0,0-.51.46,3.64,3.64,0,0,0-.5-.46A5.13,5.13,0,0,0,9,6.87a5.12,5.12,0,0,0-3.08,1,3.21,3.21,0,0,0-.51.46,3.64,3.64,0,0,0-.5-.46,4.45,4.45,0,0,0-.51-.33v0a5,5,0,0,0-.36,1.86,6.19,6.19,0,0,0,1.74,3.76A12.79,12.79,0,0,0,9,15.91a12.93,12.93,0,0,0,3.22-2.76A6.23,6.23,0,0,0,14,9.39,4.87,4.87,0,0,0,13.59,7.55ZM12,13A12.16,12.16,0,0,1,9,15.42,12.27,12.27,0,0,1,6.05,13l-.26-.3A5.15,5.15,0,0,1,9,11.54a5.23,5.23,0,0,1,3.22,1.11Z"/><path class="cls-2" d="M13.59,7.53a5.46,5.46,0,0,0-.47.31,3.21,3.21,0,0,0-.51.46,3.64,3.64,0,0,0-.5-.46A5.13,5.13,0,0,0,9,6.87a5.12,5.12,0,0,0-3.08,1,3.21,3.21,0,0,0-.51.46,3.64,3.64,0,0,0-.5-.46,4.45,4.45,0,0,0-.51-.33c0-.11.09-.22.15-.33a2,2,0,0,1,.18-.32h0a4.3,4.3,0,0,1,.68.47A5.63,5.63,0,0,1,9,6.13a5.59,5.59,0,0,1,3.59,1.19,4.83,4.83,0,0,1,.64-.44h0v0l.17.31C13.5,7.31,13.54,7.42,13.59,7.53Z"/><path class="cls-2" d="M17.8,7.12v0a7.62,7.62,0,0,0-.22-.82h0c-.07-.21-.14-.41-.22-.62s-.18-.42-.28-.62-.21-.41-.32-.6a9,9,0,0,0-15.49,0c-.12.2-.23.39-.33.6a4.91,4.91,0,0,0-.28.62c-.09.22-.17.44-.24.67h0q-.12.39-.21.81v0A8.16,8.16,0,0,0,0,9c0,2.41,1.43,4.83,3.16,6.85a23.11,23.11,0,0,0,5.84,5,23.25,23.25,0,0,0,5.85-5C16.57,13.83,18,11.4,18,9A9,9,0,0,0,17.8,7.12ZM9,4.44a4.94,4.94,0,0,1,4.26,2.43h0v0l.17.31c.06.11.1.22.15.33v0A4.87,4.87,0,0,1,14,9.39a6.23,6.23,0,0,1-1.73,3.76A12.93,12.93,0,0,1,9,15.91a12.79,12.79,0,0,1-3.21-2.76A6.19,6.19,0,0,1,4.05,9.39a5,5,0,0,1,.36-1.86v0c0-.11.09-.22.15-.33a2,2,0,0,1,.18-.32h0l.12-.18A4.93,4.93,0,0,1,9,4.44Z"/><path class="cls-1" d="M13.26,6.87a6.22,6.22,0,0,0-.65.45A5.59,5.59,0,0,0,9,6.13,5.63,5.63,0,0,0,5.43,7.32a4.3,4.3,0,0,0-.68-.47,5,5,0,0,1,8.51,0Z"/><path class="cls-2" d="M12.22,12.65,12,13A12.16,12.16,0,0,1,9,15.42,12.27,12.27,0,0,1,6.05,13l-.26-.3A5.15,5.15,0,0,1,9,11.54,5.23,5.23,0,0,1,12.22,12.65Z"/></g></g></svg>