<svg xmlns="http://www.w3.org/2000/svg" viewBox="0 0 33 38.27"><defs><style>.cls-1{fill:#fcf2f2;}.cls-2{fill:#333;}</style></defs><title>notification33</title><g id="Layer_2" data-name="Layer 2"><g id="Layer_1-2" data-name="Layer 1"><path class="cls-1" d="M24.92,13.83v0a7.12,7.12,0,0,0-.86.57,6.11,6.11,0,0,0-.92.83,6.72,6.72,0,0,0-.93-.83,9.34,9.34,0,0,0-5.66-1.78,9.33,9.33,0,0,0-5.65,1.78,6.72,6.72,0,0,0-.93.83A6.11,6.11,0,0,0,9,14.38a7.58,7.58,0,0,0-.94-.61v0a9.16,9.16,0,0,0-.66,3.41c0,2.42,1.45,4.87,3.18,6.9a23.4,23.4,0,0,0,5.89,5.06,23.36,23.36,0,0,0,5.9-5.06c1.73-2,3.17-4.48,3.17-6.9A9,9,0,0,0,24.92,13.83Zm-3,9.92a22.61,22.61,0,0,1-5.41,4.51,22.45,22.45,0,0,1-5.4-4.51c-.17-.18-.33-.36-.49-.55a9.5,9.5,0,0,1,11.79,0C22.24,23.38,22.08,23.57,21.91,23.75Z"/><path class="cls-2" d="M24.91,13.81a7.12,7.12,0,0,0-.86.57,6.11,6.11,0,0,0-.92.83,6.72,6.72,0,0,0-.93-.83,9.34,9.34,0,0,0-5.66-1.78,9.33,9.33,0,0,0-5.65,1.78,6.72,6.72,0,0,0-.93.83A6.11,6.11,0,0,0,9,14.38a7.58,7.58,0,0,0-.94-.61c.09-.2.17-.4.28-.6s.21-.4.33-.6h0a8.77,8.77,0,0,1,1.24.86,10.26,10.26,0,0,1,6.58-2.19,10.29,10.29,0,0,1,6.59,2.19,8.24,8.24,0,0,1,1.16-.81h0l0,0c.1.19.21.38.3.58A6.46,6.46,0,0,1,24.91,13.81Z"/><path class="cls-2" d="M32.64,13.06v0a12.74,12.74,0,0,0-.4-1.5v0c-.12-.38-.26-.76-.41-1.14s-.32-.76-.5-1.14-.39-.74-.6-1.1a16.5,16.5,0,0,0-28.4,0c-.22.36-.41.71-.6,1.09s-.36.76-.52,1.15-.3.8-.44,1.21v0A13.23,13.23,0,0,0,.37,13s0,0,0,.05A16,16,0,0,0,0,16.5c0,4.41,2.63,8.86,5.79,12.57,4.57,5.36,10.26,9.2,10.71,9.2s6.14-3.84,10.73-9.21C30.38,25.35,33,20.91,33,16.5A16.26,16.26,0,0,0,32.64,13.06ZM16.5,8.14a9,9,0,0,1,7.81,4.46h0l0,0c.1.19.21.38.3.58a6.46,6.46,0,0,1,.27.6v0a9,9,0,0,1,.65,3.38c0,2.42-1.44,4.86-3.17,6.9a23.36,23.36,0,0,1-5.9,5.06,23.4,23.4,0,0,1-5.89-5.06c-1.73-2-3.18-4.48-3.18-6.9a9.16,9.16,0,0,1,.66-3.41v0c.09-.2.17-.4.28-.6s.21-.4.33-.6h0c.06-.11.13-.22.2-.33A9,9,0,0,1,16.5,8.14Z"/><path class="cls-1" d="M24.31,12.6a7.27,7.27,0,0,0-1.18.82,10.29,10.29,0,0,0-6.59-2.19A10.26,10.26,0,0,0,10,13.42a8.77,8.77,0,0,0-1.24-.86,9.06,9.06,0,0,1,15.59,0Z"/><path class="cls-2" d="M22.4,23.2c-.16.18-.32.37-.49.55a22.61,22.61,0,0,1-5.41,4.51,22.45,22.45,0,0,1-5.4-4.51c-.17-.18-.33-.36-.49-.55a9.5,9.5,0,0,1,11.79,0Z"/></g></g></svg>