<svg xmlns="http://www.w3.org/2000/svg" viewBox="0 0 22 25.51"><defs><style>.cls-1{fill:#fcf2f2;}.cls-2{fill:#333;}</style></defs><title>notification22</title><g id="Layer_2" data-name="Layer 2"><g id="Layer_1-2" data-name="Layer 1"><path class="cls-1" d="M16.61,9.22h0a4.65,4.65,0,0,0-.57.37,4.82,4.82,0,0,0-.62.56,5.59,5.59,0,0,0-.62-.56A6.29,6.29,0,0,0,11,8.4,6.29,6.29,0,0,0,7.26,9.58a5.59,5.59,0,0,0-.62.56A4.82,4.82,0,0,0,6,9.58a5.49,5.49,0,0,0-.62-.4v0A6.12,6.12,0,0,0,5,11.47a7.56,7.56,0,0,0,2.13,4.6A15.58,15.58,0,0,0,11,19.45a15.73,15.73,0,0,0,3.93-3.38,7.57,7.57,0,0,0,2.12-4.6A5.86,5.86,0,0,0,16.61,9.22Zm-2,6.61a14.93,14.93,0,0,1-3.61,3,15,15,0,0,1-3.6-3c-.11-.11-.22-.24-.32-.36a6.31,6.31,0,0,1,7.85,0Z"/><path class="cls-2" d="M16.61,9.21a4.65,4.65,0,0,0-.57.37,4.82,4.82,0,0,0-.62.56,5.59,5.59,0,0,0-.62-.56A6.29,6.29,0,0,0,11,8.4,6.29,6.29,0,0,0,7.26,9.58a5.59,5.59,0,0,0-.62.56A4.82,4.82,0,0,0,6,9.58a5.49,5.49,0,0,0-.62-.4l.18-.4c.07-.14.14-.27.22-.4h0A6.43,6.43,0,0,1,6.64,9,6.87,6.87,0,0,1,11,7.49,6.87,6.87,0,0,1,15.42,9a5.15,5.15,0,0,1,.78-.55h0v0a3.59,3.59,0,0,1,.21.38Z"/><path class="cls-2" d="M21.76,8.7v0a8.14,8.14,0,0,0-.26-1h0a6.86,6.86,0,0,0-.27-.76c-.1-.26-.21-.51-.33-.76s-.26-.5-.4-.74a11,11,0,0,0-18.93,0,7.43,7.43,0,0,0-.4.73C1,6.36.91,6.62.8,6.87s-.2.54-.29.81v0a6.37,6.37,0,0,0-.26,1v0A10.76,10.76,0,0,0,0,11c0,2.94,1.75,5.91,3.86,8.38A28.42,28.42,0,0,0,11,25.51a28.47,28.47,0,0,0,7.15-6.14C20.25,16.9,22,13.94,22,11A10.88,10.88,0,0,0,21.76,8.7ZM11,5.42a6,6,0,0,1,5.21,3h0v0a3.59,3.59,0,0,1,.21.38l.18.41h0a5.86,5.86,0,0,1,.44,2.25,7.57,7.57,0,0,1-2.12,4.6A15.73,15.73,0,0,1,11,19.45a15.58,15.58,0,0,1-3.92-3.38A7.56,7.56,0,0,1,5,11.47,6.12,6.12,0,0,1,5.39,9.2v0l.18-.4c.07-.14.14-.27.22-.4h0L6,8.16A6,6,0,0,1,11,5.42Z"/><path class="cls-1" d="M16.21,8.4a5,5,0,0,0-.79.55A6.87,6.87,0,0,0,11,7.49,6.87,6.87,0,0,0,6.64,9a6.43,6.43,0,0,0-.83-.58,6,6,0,0,1,10.4,0Z"/><path class="cls-2" d="M14.93,15.47l-.32.36a14.93,14.93,0,0,1-3.61,3,15,15,0,0,1-3.6-3c-.11-.11-.22-.24-.32-.36a6.31,6.31,0,0,1,7.85,0Z"/></g></g></svg>