<svg xmlns="http://www.w3.org/2000/svg" viewBox="0 0 290.8 337.22"><defs><style>.cls-1{fill:#fff;}</style></defs><title>wbicon</title><g id="Layer_2" data-name="Layer 2"><g id="Layer_1-2" data-name="Layer 1"><path d="M219.61,121.91l-.09-.21a70.54,70.54,0,0,0-7.56,5,61.65,61.65,0,0,0-8.17,7.38,61.65,61.65,0,0,0-8.17-7.38C182.81,117,165.2,111,145.79,111s-37,6-49.83,15.68a61.65,61.65,0,0,0-8.17,7.38,61.65,61.65,0,0,0-8.17-7.38,68.72,68.72,0,0,0-8.2-5.33l-.11.27a79.54,79.54,0,0,0-5.84,30c0,21.36,12.74,42.89,28.05,60.82,22.16,26,49.7,44.59,51.86,44.59s29.78-18.61,52-44.63c15.28-17.93,28-39.46,28-60.78A78.75,78.75,0,0,0,219.61,121.91Zm-26.52,87.36c-21.31,23.46-45.65,39.79-47.71,39.79s-26.32-16.3-47.6-39.75c-1.44-1.58-2.86-3.2-4.26-4.84a83.77,83.77,0,0,1,103.84,0C196,206.07,194.53,207.69,193.09,209.27Z"/><path class="cls-1" d="M219.52,121.7a70.54,70.54,0,0,0-7.56,5,61.65,61.65,0,0,0-8.17,7.38,61.65,61.65,0,0,0-8.17-7.38C182.81,117,165.2,111,145.79,111s-37,6-49.83,15.68a61.65,61.65,0,0,0-8.17,7.38,61.65,61.65,0,0,0-8.17-7.38,68.72,68.72,0,0,0-8.2-5.33c.73-1.78,1.5-3.55,2.39-5.28s1.86-3.55,2.92-5.28l.07-.11a71.71,71.71,0,0,1,11,7.6c13.94-11.79,34.75-19.28,58-19.28s44.06,7.49,58,19.28a70.91,70.91,0,0,1,10.3-7.2l.16-.09,0,.05c.06.1.12.2.17.3,1,1.63,1.87,3.31,2.71,5S218.79,119.91,219.52,121.7Z"/><path class="cls-1" d="M287.63,115.06c0-.12-.05-.24-.07-.36A122.14,122.14,0,0,0,284,101.52s0-.1-.05-.15c-1.05-3.42-2.26-6.75-3.59-10s-2.84-6.77-4.44-10.07-3.39-6.56-5.25-9.69a145.39,145.39,0,0,0-250.24-.46c-1.95,3.17-3.68,6.3-5.33,9.6S12,87.44,10.61,90.82,7.9,97.89,6.74,101.55l-.06.18a128.56,128.56,0,0,0-3.43,13.21c0,.12-.06.25-.08.37A140.74,140.74,0,0,0,0,145.43c0,38.87,23.18,78,51,110.7,40.31,47.29,90.44,81.09,94.37,81.09s54.14-33.84,94.54-81.18c27.79-32.65,50.88-71.82,50.88-110.61A146.33,146.33,0,0,0,287.63,115.06ZM145.38,71.7A79.89,79.89,0,0,1,214.25,111l0,.05c.06.1.12.2.17.3,1,1.63,1.87,3.31,2.71,5s1.63,3.54,2.36,5.33l.09.21a78.75,78.75,0,0,1,5.72,29.74c0,21.32-12.69,42.85-28,60.78-22.2,26-49.78,44.63-52,44.63s-29.7-18.57-51.86-44.59c-15.31-17.93-28-39.46-28-60.82a79.54,79.54,0,0,1,5.84-30l.11-.27c.73-1.78,1.5-3.55,2.39-5.28s1.86-3.55,2.92-5.28l.07-.11c.58-1,1.18-1.94,1.81-2.88A79.66,79.66,0,0,1,145.38,71.7Z"/><path d="M214.25,111a70.39,70.39,0,0,0-10.46,7.29C189.85,106.49,169,99,145.79,99s-44.06,7.49-58,19.28a71.71,71.71,0,0,0-11-7.6,79.91,79.91,0,0,1,137.45.31Z"/><path class="cls-1" d="M197.36,204.43c-1.4,1.64-2.83,3.26-4.27,4.84-21.31,23.46-45.65,39.79-47.71,39.79s-26.32-16.3-47.6-39.75c-1.44-1.58-2.86-3.2-4.26-4.84a83.77,83.77,0,0,1,103.84,0Z"/></g></g></svg>